<svg width="196" height="25" viewBox="0 0 196 25" fill="none" xmlns="http://www.w3.org/2000/svg">
<path d="M-2.74181e-06 24.64V1.6H21.024V4.192H2.592V11.808H17.408V14.432H2.592V22.048H21.024V24.64H-2.74181e-06ZM28.18 24.64C27.476 24.64 26.8253 24.4693 26.228 24.128C25.652 23.7653 25.1827 23.296 24.82 22.72C24.4787 22.1227 24.308 21.472 24.308 20.768V-1.90735e-06H26.932V20.768C26.932 21.1093 27.0493 21.408 27.284 21.664C27.54 21.8987 27.8387 22.016 28.18 22.016H31.316V24.64H28.18ZM37.3355 24.64C36.6315 24.64 35.9808 24.4693 35.3835 24.128C34.8075 23.7653 34.3382 23.296 33.9755 22.72C33.6342 22.1227 33.4635 21.472 33.4635 20.768V9.952C33.4635 9.248 33.6342 8.608 33.9755 8.032C34.3382 7.43466 34.8075 6.96533 35.3835 6.624C35.9808 6.26133 36.6315 6.08 37.3355 6.08H48.4715C49.1968 6.08 49.8475 6.26133 50.4235 6.624C51.0208 6.96533 51.4902 7.43466 51.8315 8.032C52.1942 8.608 52.3755 9.248 52.3755 9.952V16.672H36.0875V20.768C36.0875 21.1093 36.2048 21.408 36.4395 21.664C36.6955 21.8987 36.9942 22.016 37.3355 22.016H52.3755V24.64H37.3355ZM36.0875 14.048H49.7195V9.952C49.7195 9.61067 49.5915 9.32267 49.3355 9.088C49.1008 8.832 48.8128 8.704 48.4715 8.704H37.3355C36.9942 8.704 36.6955 8.832 36.4395 9.088C36.2048 9.32267 36.0875 9.61067 36.0875 9.952V14.048ZM58.8667 24.64C58.1627 24.64 57.5121 24.4693 56.9147 24.128C56.3387 23.7653 55.8694 23.296 55.5067 22.72C55.1654 22.1227 54.9947 21.472 54.9947 20.768V9.952C54.9947 9.248 55.1654 8.608 55.5067 8.032C55.8694 7.43466 56.3387 6.96533 56.9147 6.624C57.5121 6.26133 58.1627 6.08 58.8667 6.08H73.8427V8.704H58.8667C58.5254 8.704 58.2267 8.832 57.9707 9.088C57.7361 9.32267 57.6187 9.61067 57.6187 9.952V20.768C57.6187 21.1093 57.7361 21.408 57.9707 21.664C58.2267 21.8987 58.5254 22.016 58.8667 22.016H73.9067V24.64H58.8667ZM80.3682 24.64C79.6429 24.64 78.9816 24.4693 78.3842 24.128C77.8082 23.7653 77.3496 23.296 77.0082 22.72C76.6669 22.1227 76.4962 21.472 76.4962 20.768V-1.90735e-06H79.1202V6.08H87.1522V8.704H79.1202V20.768C79.1202 21.1093 79.2376 21.408 79.4722 21.664C79.7282 21.8987 80.0269 22.016 80.3682 22.016H87.1522V24.64H80.3682ZM89.5892 24.64V9.952C89.5892 9.248 89.7599 8.608 90.1012 8.032C90.4639 7.43466 90.9332 6.96533 91.5092 6.624C92.1066 6.26133 92.7572 6.08 93.4612 6.08H103.893V8.704H93.4612C93.1199 8.704 92.8212 8.832 92.5652 9.088C92.3306 9.32267 92.2132 9.61067 92.2132 9.952V24.64H89.5892ZM109.648 24.64C108.944 24.64 108.293 24.4693 107.696 24.128C107.12 23.7653 106.651 23.296 106.288 22.72C105.947 22.1227 105.776 21.472 105.776 20.768V9.952C105.776 9.248 105.947 8.608 106.288 8.032C106.651 7.43466 107.12 6.96533 107.696 6.624C108.293 6.26133 108.944 6.08 109.648 6.08H120.784C121.509 6.08 122.16 6.26133 122.736 6.624C123.333 6.96533 123.803 7.43466 124.144 8.032C124.507 8.608 124.688 9.248 124.688 9.952V20.768C124.688 21.472 124.507 22.1227 124.144 22.72C123.803 23.296 123.333 23.7653 122.736 24.128C122.16 24.4693 121.509 24.64 120.784 24.64H109.648ZM109.648 22.016H120.784C121.125 22.016 121.413 21.8987 121.648 21.664C121.904 21.408 122.032 21.1093 122.032 20.768V9.952C122.032 9.61067 121.904 9.32267 121.648 9.088C121.413 8.832 121.125 8.704 120.784 8.704H109.648C109.307 8.704 109.008 8.832 108.752 9.088C108.517 9.32267 108.4 9.61067 108.4 9.952V20.768C108.4 21.1093 108.517 21.408 108.752 21.664C109.008 21.8987 109.307 22.016 109.648 22.016ZM128.124 24.64V1.6H130.716V11.808H149.116V1.6H151.74V24.64H149.116V14.432H130.716V24.64H128.124ZM159.087 24.64C158.383 24.64 157.732 24.4693 157.135 24.128C156.559 23.7653 156.09 23.296 155.727 22.72C155.386 22.1227 155.215 21.472 155.215 20.768V6.08H157.839V20.768C157.839 21.1093 157.956 21.408 158.191 21.664C158.447 21.8987 158.746 22.016 159.087 22.016H170.223C170.564 22.016 170.863 21.8987 171.119 21.664C171.375 21.408 171.503 21.1093 171.503 20.768V6.08H174.127V20.768C174.127 21.472 173.946 22.1227 173.583 22.72C173.242 23.296 172.772 23.7653 172.175 24.128C171.599 24.4693 170.948 24.64 170.223 24.64H159.087ZM177.028 24.64V-1.90735e-06H179.652V6.08H192.068C192.772 6.08 193.412 6.26133 193.988 6.624C194.586 6.96533 195.055 7.43466 195.396 8.032C195.759 8.608 195.94 9.248 195.94 9.952V20.768C195.94 21.472 195.759 22.1227 195.396 22.72C195.055 23.296 194.586 23.7653 193.988 24.128C193.412 24.4693 192.772 24.64 192.068 24.64H177.028ZM180.932 22.016H192.068C192.41 22.016 192.698 21.8987 192.932 21.664C193.188 21.408 193.316 21.1093 193.316 20.768V9.952C193.316 9.61067 193.188 9.32267 192.932 9.088C192.698 8.832 192.41 8.704 192.068 8.704H180.932C180.591 8.704 180.292 8.832 180.036 9.088C179.78 9.32267 179.652 9.61067 179.652 9.952V20.768C179.652 21.1093 179.78 21.408 180.036 21.664C180.292 21.8987 180.591 22.016 180.932 22.016Z" fill="#111827"/>
</svg>
